<svg width="107" height="30" viewBox="0 0 107 30" fill="none" xmlns="http://www.w3.org/2000/svg">
<path d="M41.8157 1.18419C41.2636 1.00357 40.6575 1.11763 40.2088 1.48656C33.6791 9.20329 23.1555 12.2464 13.5151 9.20553C12.8934 6.94964 12.4551 5.34944 12.4551 5.34944C12.1242 4.41739 11.1648 3.86421 10.1924 4.04483L10.6952 8.12175C7.32616 6.58415 4.33873 4.32067 1.94683 1.49335C1.49673 1.12737 0.892178 1.01361 0.339844 1.19098C2.3256 6.48687 6.25794 10.8251 11.3339 13.3199L12.7133 24.4668C12.7133 24.4668 13.3282 28.7306 17.327 28.7306H25.8852C29.8839 28.7306 30.5023 24.4668 30.5023 24.4668L31.4672 16.4795C28.8681 16.2654 27.2339 18.0763 26.7107 19.8769C25.841 22.887 25.841 23.0807 25.6677 23.6141C25.4272 24.2612 24.8501 24.7235 24.1661 24.8168H19.0291C18.3451 24.7235 17.768 24.2612 17.5275 23.6141C17.2998 22.9346 16.1685 18.8577 15.0338 14.7808C26.1238 17.9089 37.7609 12.018 41.8056 1.22835L41.8157 1.18419Z" fill="#00AAE7"/>
<path fill-rule="evenodd" clip-rule="evenodd" d="M77.071 13.4523H83.7197V10.5272H77.071V7.56458H74.0778V10.5272H69.4743L69.8582 8.3324H66.7292L65.1324 17.4783H66.403C67.509 17.3865 68.415 16.5627 68.6113 15.4704L68.9511 13.4523H74.0472V22.3706H65.1188V25.3638H74.0472V28.3093H77.0404V25.3638H84.4468V22.3706H77.0404L77.071 13.4523ZM45.8756 7.59856H48.8721L48.8857 10.5H62.2376V13.5169H48.8585V24.5416H58.5005V20.9029H61.5038V25.6593C61.4421 26.7146 60.5926 27.5523 59.5367 27.5993H47.7782C46.7677 27.5244 45.9613 26.7267 45.8756 25.7171V13.5339H42.9028V10.517H45.8756V7.59856ZM88.2418 8.27804H105.3V11.2032H88.2418V8.27804ZM106.119 14.9404V17.937L94.1364 17.92L91.483 24.5891H102.572L101.23 20.8893H104.533L105.891 24.6265C105.997 24.9798 106.058 25.3451 106.072 25.7137C106.072 26.6378 105.171 27.5279 104.169 27.5993H88.201V24.6061H88.2452L90.8986 17.937H87.4672V14.9404H106.119Z" fill="#00AAE7"/>
</svg>
