<svg width="240" height="240" viewBox="0 0 240 240" fill="none" xmlns="http://www.w3.org/2000/svg">
<path fill-rule="evenodd" clip-rule="evenodd" d="M222 54.4357C218.566 53.2654 215.725 54.6914 214.096 55.9083C191.497 82.4449 157.731 99.2966 120 99.2966C107.036 99.2966 94.5405 97.3078 82.805 93.619C79.7488 82.601 77.5881 74.7786 77.5881 74.7786C77.5881 74.7786 75.0499 67.1023 66.4592 68.4188L68.929 88.3051C52.269 80.7533 37.5909 69.629 25.9039 55.9049C24.273 54.6914 21.4339 53.2654 18 54.4357C27.762 80.3781 47.2677 101.589 72.0872 113.7L78.8564 168.161C78.8564 168.161 81.8826 189 101.564 189H143.66C163.341 189 166.367 168.161 166.367 168.161L171.124 129.132C158.343 128.098 150.305 136.946 147.755 145.678C143.476 160.382 143.481 161.321 142.637 163.886C140.909 169.137 135.24 169.763 135.24 169.763H109.986C109.986 169.763 104.313 169.137 102.585 163.886C101.472 160.504 95.9141 140.723 90.3195 120.654C99.7557 123.305 109.712 124.728 120 124.728C166.716 124.728 206.55 95.4916 222 54.4357Z" fill="#00AAE7"/>
</svg>
